<?xml version="1.0" encoding="utf-8"?>
<!-- Generator: Adobe Illustrator 16.0.0, SVG Export Plug-In . SVG Version: 6.00 Build 0)  -->
<!DOCTYPE svg PUBLIC "-//W3C//DTD SVG 1.1//EN" "http://www.w3.org/Graphics/SVG/1.1/DTD/svg11.dtd">
<svg version="1.1" id="Layer_1" xmlns="http://www.w3.org/2000/svg" xmlns:xlink="http://www.w3.org/1999/xlink" x="0px" y="0px"
	 width="528px" height="528px" viewBox="0 0 528 528" enable-background="new 0 0 528 528" xml:space="preserve">
<g id="surface1">
	<path fill="#ECEFF1" d="M148.25,528.5h234c80.78,0,146.25-65.656,146.25-146.667V147.167C528.5,66.156,463.03,0.5,382.25,0.5h-234
		C67.47,0.5,2,66.156,2,147.167v234.667C2,462.844,67.47,528.5,148.25,528.5z"/>
	<path fill="#FFC107" d="M112.373,187.271c0,6.188-5.027,11.171-11.197,11.171c-6.113,0-11.141-4.984-11.141-11.171
		c0-6.13,5.028-11.172,11.141-11.172C107.346,176.099,112.373,181.141,112.373,187.271z"/>
	<path fill="#FF5722" d="M147.964,232.359l21.138-8.938c9.94-17.875,26.85-28.245,48.731-28.245c4.97,0,9.654,0.63,14.053,1.662
		l20.109-8.479c-9.94-4.927-21.252-7.734-34.163-7.734C182.871,180.625,157.962,199.875,147.964,232.359z"/>
	<path fill="#FF5722" d="M108.717,249.031V226H93.749v29.391L108.717,249.031z"/>
	<path fill="#F44336" d="M108.717,289.938v-40.906l-14.968,6.359v40.849L108.717,289.938z"/>
	<path fill="#F44336" d="M159.104,266.677c0-17.13,3.599-31.739,9.998-43.255l-21.138,8.938
		c-3.085,10.255-4.856,21.656-4.856,34.317c0,2.922,0.399,5.615,0.571,8.422l15.54-6.588
		C159.219,267.88,159.104,267.308,159.104,266.677z"/>
	<path fill="#F44336" d="M359.17,183.833c-4.113,1.26-7.884,2.865-11.312,4.812L359.17,183.833z"/>
	<path fill="#F44336" d="M251.996,188.359l-20.109,8.479c15.025,3.437,26.736,12.661,34.392,26.354l14.968-6.359
		C274.391,204.058,264.393,194.49,251.996,188.359z"/>
	<path fill="#E91E63" d="M108.717,330.786v-40.849l-14.968,6.302v40.906L108.717,330.786z"/>
	<path fill="#E91E63" d="M359.17,183.833l-11.312,4.812c-14.396,8.021-23.08,21.427-23.08,37.813c0,4.468,0.686,8.364,1.714,12.088
		l15.082-6.359c-0.515-1.948-0.8-3.953-0.8-6.188c0-17.99,16.339-31.052,39.99-31.052c11.597,0,21.423,3.151,28.621,8.536
		l15.311-6.531c-10.112-10.026-25.364-16.328-43.474-16.328C373.224,180.625,365.797,181.771,359.17,183.833z"/>
	<path fill="#E91E63" d="M159.219,268.511l-15.54,6.588c0.856,14.094,3.828,26.584,8.741,37.183l14.682-6.188
		C162.189,295.609,159.447,283.005,159.219,268.511z"/>
	<path fill="#E91E63" d="M281.246,216.833l-14.968,6.359c5.542,9.969,8.798,22.458,9.598,36.782l15.539-6.531
		C290.044,239.521,286.73,227.146,281.246,216.833z"/>
	<path fill="#9C27B0" d="M288.787,295.438c2.114-8.823,3.542-18.333,3.542-28.761c0-4.64-0.515-8.938-0.914-13.292l-15.539,6.589
		c0.114,2.234,0.457,4.354,0.457,6.703c0,14.209-2.628,26.526-7.026,37.011L288.787,295.438z"/>
	<path fill="#9C27B0" d="M167.103,306.094l-14.682,6.188c5.999,12.891,14.739,22.974,25.994,29.906l18.396-7.792
		C183.67,329.412,173.501,319.729,167.103,306.094z"/>
	<path fill="#9C27B0" d="M108.717,330.786l-14.968,6.359v12.261h14.968V330.786z"/>
	<path fill="#9C27B0" d="M341.574,232.188l-15.082,6.359c3.599,12.719,13.368,21.599,31.136,27.729l23.422-9.912l-4.97-1.26
		C354.771,249.776,344.316,242.901,341.574,232.188z"/>
	<path fill="#9C27B0" d="M422.012,224.51h15.768c-0.743-10.713-5.541-20.167-13.083-27.557l-15.311,6.474
		C416.299,208.583,420.813,215.859,422.012,224.51z"/>
	<path fill="#3F51B5" d="M288.787,295.438l-19.48,8.25c-9.198,21.656-27.08,34.604-51.473,34.604
		c-7.712,0-14.625-1.489-21.024-3.896l-18.396,7.792c10.969,6.703,24.108,10.656,39.419,10.656
		C255.024,352.844,280.16,331.073,288.787,295.438z"/>
	<path fill="#3F51B5" d="M335.861,306.438h-15.768c0.399,5.385,1.885,10.313,3.885,14.953l14.453-6.13
		C337.176,312.511,336.204,309.589,335.861,306.438z"/>
	<path fill="#3F51B5" d="M392.419,259.229l-11.426-2.865l-23.365,9.912c3.427,1.203,7.142,2.291,11.14,3.266l18.853,4.813
		c10.454,2.578,18.396,5.844,24.279,9.854l17.596-7.505C421.783,269.141,409.729,263.526,392.419,259.229z"/>
	<path fill="#03A9F4" d="M338.432,315.317l-14.453,6.131c5.484,12.719,16.625,22.401,31.649,27.442l24.737-10.484
		C360.198,337.948,344.431,328.954,338.432,315.317z"/>
	<path fill="#03A9F4" d="M439.493,313.37c0.515-2.808,0.914-5.729,0.914-8.767c0-11.515-3.428-20.567-10.912-27.9l-17.596,7.505
		c8.456,5.672,12.513,12.948,12.513,22.115c0,5.786-1.886,11-5.085,15.583L439.493,313.37z"/>
	<path fill="#009688" d="M439.493,313.37l-20.166,8.536c-6.913,10.026-20.396,16.614-37.306,16.614
		c-0.571,0-1.086-0.057-1.656-0.114l-24.737,10.484c7.54,2.521,15.882,3.953,25.022,3.953
		C412.928,352.844,435.094,337.317,439.493,313.37z"/>
</g>
</svg>
