<?xml version="1.0" encoding="utf-8"?>
<!-- Generator: Adobe Illustrator 16.0.0, SVG Export Plug-In . SVG Version: 6.00 Build 0)  -->
<!DOCTYPE svg PUBLIC "-//W3C//DTD SVG 1.1//EN" "http://www.w3.org/Graphics/SVG/1.1/DTD/svg11.dtd">
<svg version="1.1" id="Layer_1" xmlns="http://www.w3.org/2000/svg" xmlns:xlink="http://www.w3.org/1999/xlink" x="0px" y="0px"
	 width="500px" height="500px" viewBox="0 0 500 500" enable-background="new 0 0 500 500" xml:space="preserve">
<g>
	<path fill="#479FD8" d="M462.178,254.004c-72.645,1.42-57.518,47.416-108.711,59.049c-52.008,11.82-60.224-127.032-112.22-127.032
		c-52.002,0-63.513,134.875-128.632,227.476l-1.851,2.626l139.596,80.59l211.818-122.293V254.004z"/>
	<path fill="#FFCE58" d="M462.178,249.811c-24.325-31.214-40.817-67.095-76.305-67.095c-62.8,0-46.272,102.462-115.682,102.462
		c-69.41,0-76.705-110.216-155.347-6.611c-25.054,33.015-45.222,69.82-61.064,104.65L250.36,496.712l211.818-122.293V249.811z"/>
	<path fill="#F06184" fill-opacity="0.8" d="M38.541,292.26C62.372,226.255,72.66,172.8,118.15,172.8
		c69.41,0,85.936,195.009,145.43,175.177c59.493-19.831,52.885-125.599,145.431-125.599c17.617,0,35.603,10.786,53.167,28.247
		v123.794L250.36,496.712L38.541,374.419V292.26z"/>
	<path fill="none" stroke="#E8E9ED" stroke-width="8" d="M250.36,7.539l211.818,122.293v244.587L250.36,496.712L38.541,374.419
		V129.832L250.36,7.539z"/>
</g>
</svg>
