<?xml version="1.0" encoding="utf-8"?>
<!-- Generator: Adobe Illustrator 16.0.0, SVG Export Plug-In . SVG Version: 6.00 Build 0)  -->
<!DOCTYPE svg PUBLIC "-//W3C//DTD SVG 1.1//EN" "http://www.w3.org/Graphics/SVG/1.1/DTD/svg11.dtd">
<svg version="1.1" id="Layer_1" xmlns="http://www.w3.org/2000/svg" xmlns:xlink="http://www.w3.org/1999/xlink" x="0px" y="0px"
	 width="528px" height="528px" viewBox="0 0 528 528" enable-background="new 0 0 528 528" xml:space="preserve">
<g id="surface1">
	<path fill="#E6E6E6" d="M526.5,264.5c0,145.808-117.969,264-263.5,264c-145.531,0-263.5-118.192-263.5-264
		c0-145.807,117.969-264,263.5-264C408.531,0.5,526.5,118.693,526.5,264.5z"/>
	<path fill="#1E75BA" d="M331.447,402.171c-13.724,39.876-32.822,82.443-56.896,125.756c57.984-2.521,111.106-23.604,153.479-57.75
		c11.151-33.515,18.414-66.859,21.444-99.172c19.614-2.635,39.57-7.047,59.699-13.005c9.206-24.35,14.925-50.474,16.526-77.688
		c-11.322,2.864-22.474,5.042-33.453,6.817C447.758,336.114,393.034,375.531,331.447,402.171z"/>
	<path fill="#01828E" d="M492.247,287.13c-14.981,2.406-29.678,3.953-43.859,4.412c-1.373-10.714-3.488-21.084-5.947-31.281
		c-6.176-25.552-15.726-49.157-28.42-70.297c-18.984,16.901-39.228,32.943-60.442,48.182c2.401,12.776,3.545,26.87,3.031,42.281
		c-14.982-4.641-28.077-10.656-39.286-17.588c-8.691,5.5-17.555,10.885-26.532,16.041c-16.64,9.625-33.509,18.448-50.436,26.641
		c1.144,1.317,2.173,2.693,3.374,4.011c16.183,18.333,35.739,32.542,57.755,42.969c12.866,6.073,26.532,10.885,40.942,14.323
		c-3.088,11.516-6.804,23.26-10.921,35.291C393.034,375.531,447.758,336.114,492.247,287.13z"/>
	<path fill="#4AAE52" d="M311.377,104.427c-3.888-1.375-7.777-2.75-11.723-3.896c21.959-19.594,54.324-36.495,98.298-48.526
		c4.517-1.203,9.093-3.15,13.724-5.385c-7.833-5.385-16.067-10.255-24.474-14.781C364.9,19.922,340.654,11.271,315.151,6.114
		c-10.293-2.063-20.758-3.724-31.451-4.583c-9.264,10.828-17.783,21.484-25.961,32.026c-15.382,19.995-28.82,39.588-39.285,58.896
		c-16.583,1.203-33.452,4.125-50.436,8.536c-53.18,13.75-107.275,42.625-156.51,84.448c-1.601,5.271-2.973,10.542-4.289,15.927
		C2.245,221.589-0.5,242.729-0.5,264.5c0,22.917,3.145,44.974,8.692,66.115c2.23,8.421,4.689,16.729,7.662,24.807
		c57.813-72.817,119.971-128.563,175.381-159.5c0.114,2.12,0.457,4.183,0.686,6.245
		C219.255,152.953,278.668,146.594,311.377,104.427z"/>
	<path fill="#209673" d="M356.552,127.745c-0.858-0.573-1.544-1.261-2.401-1.833c-13.496-9.052-27.85-16.099-42.773-21.484
		c-32.709,42.109-92.122,48.526-119.456,97.74c2.001,20.338,8.063,40.734,19.156,61.359c7.491,13.864,17.212,27.844,29.278,41.994
		c16.926-8.192,33.796-16.958,50.436-26.583c8.978-5.214,17.841-10.599,26.532-16.099c-8.634-5.386-16.239-11.229-22.187-17.646
		c-12.065-13.177-20.644-27.271-25.79-41.708c-3.944-11.229-5.889-22.688-5.375-34.088c14.01-1.776,26.761-0.688,38.312,2.865
		c6.291,1.891,12.352,4.354,17.784,8.021c17.67,11.859,28.593,31.912,33.51,57.864c21.215-15.239,41.458-31.281,60.442-48.182
		C399.268,165.386,380.226,144.188,356.552,127.745z"/>
</g>
</svg>
