<?xml version="1.0" encoding="utf-8"?>
<!-- Generator: Adobe Illustrator 16.0.0, SVG Export Plug-In . SVG Version: 6.00 Build 0)  -->
<!DOCTYPE svg PUBLIC "-//W3C//DTD SVG 1.1//EN" "http://www.w3.org/Graphics/SVG/1.1/DTD/svg11.dtd">
<svg version="1.1" id="Layer_1" xmlns="http://www.w3.org/2000/svg" xmlns:xlink="http://www.w3.org/1999/xlink" x="0px" y="0px"
	 width="528px" height="528px" viewBox="0 0 528 528" enable-background="new 0 0 528 528" xml:space="preserve">
<g id="surface1">
	<path fill="#03A9F4" d="M456.848,216.992c4.665-20.712-1.119-45.156-29.855-71.652c-46.742,42.311-33.399,86.3-17.912,107.479
		c0,0-1.96,11.942-47.769,11.942s-358.261,0-358.261,0s-21.878,191.072,191.073,191.072c186.221,0,238.515-143.352,248.73-180.018
		c4.245,0.561,8.956,0.934,13.994,0.887c25.657-0.187,58.87-13.995,71.652-65.495C494.587,199.453,472.849,204.771,456.848,216.992z
		"/>
	<path fill="#0288D1" d="M5.009,312.528c8.77,56.585,45.622,143.305,189.114,143.305c145.497,0,209.266-87.512,235.063-143.305
		H5.009z"/>
	<path fill="#81D4FA" d="M215.768,455.086c-11.01-3.824-60.597-13.015-69.413-82.848c-50.288,22.252-94.791,16.421-114.383,12.036
		c25.797,38.578,73.658,71.559,162.151,71.559C201.54,455.833,208.724,455.554,215.768,455.086z"/>
	<path fill="#FFFFFF" d="M218.007,360.297c0,13.201-10.683,23.884-23.884,23.884c-13.202,0-23.884-10.683-23.884-23.884
		s10.682-23.884,23.884-23.884C207.324,336.413,218.007,347.096,218.007,360.297z"/>
	<path fill="#37474F" d="M157.271,379.376c2.659,6.018,0.233,13.854-6.111,15.721c-39.418,11.615-73.379,13.154-99.082,13.154
		c-7.65-7.369-14.228-15.254-19.779-23.417c30.882,0,80.142-1.446,109.205-11.522C147.754,371.119,154.611,373.312,157.271,379.376z
		 M3.05,300.587c0,0,22.391,1.492,35.826-11.942c22.391,20.152,70.952,13.015,83.594,0c12.688,20.152,82.848,16.42,95.536,0
		c14.927,17.167,79.116,20.898,95.536,0c5.738,17.446,81.448,22.392,95.537,0c12.688,13.015,60.456,23.138,87.325,0
		c6.719,14.181,32.095,11.942,32.095,11.942v11.941H3.05 M182.181,360.297c0,6.577,5.365,11.941,11.942,11.941
		c6.577,0,11.942-5.364,11.942-11.941s-5.365-11.942-11.942-11.942C187.545,348.354,182.181,353.72,182.181,360.297z"/>
	<path fill="#01579B" d="M110.529,264.761h-59.71v-59.71h59.71V264.761z M229.949,205.05h-59.71v59.71h59.71V205.05z
		 M349.369,205.05h-59.71v59.71h59.71V205.05z M170.239,145.34h-59.71v59.71h59.71V145.34z M289.659,145.34h-59.71v59.71h59.71
		V145.34z"/>
	<path fill="#0288D1" d="M170.239,264.761h-59.71v-59.71h59.71V264.761z M289.659,205.05h-59.71v59.71h59.71V205.05z M289.659,85.63
		h-59.71v59.71h59.71V85.63z M229.949,145.34h-59.71v59.71h59.71V145.34z"/>
</g>
</svg>
