<?xml version="1.0" encoding="utf-8"?>
<!-- Generator: Adobe Illustrator 16.0.0, SVG Export Plug-In . SVG Version: 6.00 Build 0)  -->
<!DOCTYPE svg PUBLIC "-//W3C//DTD SVG 1.1//EN" "http://www.w3.org/Graphics/SVG/1.1/DTD/svg11.dtd">
<svg version="1.1" id="Layer_1" xmlns="http://www.w3.org/2000/svg" xmlns:xlink="http://www.w3.org/1999/xlink" x="0px" y="0px"
	 width="528px" height="528px" viewBox="0 0 528 528" enable-background="new 0 0 528 528" xml:space="preserve">
<g id="surface1">
	<path fill="#FFFFFF" d="M499.868,265c0,129.738-105.13,234.869-234.868,234.869C135.261,499.869,30.132,394.738,30.132,265
		C30.132,135.261,135.261,30.132,265,30.132C394.738,30.132,499.868,135.261,499.868,265z"/>
	<path fill="#455A64" d="M223.553,499.869v-75.988c0-3.831,3.076-6.907,6.908-6.907s6.908,3.076,6.908,6.907v75.988H265v-89.803
		c0-3.833,3.076-6.909,6.908-6.909c3.831,0,6.907,3.076,6.907,6.909v89.803h27.632v-75.988c0-3.831,3.076-6.907,6.908-6.907
		s6.908,3.076,6.908,6.907v75.988h24.285c2.159-3.778,3.346-8.689,3.346-14.896V430.52c0-29.897-26.391-72.316-58.717-72.316h-34.54
		c-32.327,0-58.717,42.472-58.717,72.316v54.453c0,6.207,1.187,11.118,3.346,14.896H223.553z"/>
	
		<path fill="none" stroke="#455A64" stroke-width="0.25" stroke-linecap="round" stroke-linejoin="round" stroke-miterlimit="10" d="
		M411.685,295.33c0,0,26.444-4.533,42.042-4.21c15.813,0.108,33.729,5.02,33.729,5.02"/>
	
		<path fill="none" stroke="#455A64" stroke-width="0.25" stroke-linecap="round" stroke-linejoin="round" stroke-miterlimit="10" d="
		M405.047,303.857c0,0,30.168-2.807,42.635-2.375c17.323,0.432,35.834,5.721,35.834,5.721"/>
	
		<path fill="none" stroke="#455A64" stroke-width="0.25" stroke-linecap="round" stroke-linejoin="round" stroke-miterlimit="10" d="
		M134.614,293.873c0,0-37.4-3.4-49.057-3.4c-11.765,0-33.892,3.4-44.578,6.422"/>
	
		<path fill="none" stroke="#455A64" stroke-width="0.25" stroke-linecap="round" stroke-linejoin="round" stroke-miterlimit="10" d="
		M143.14,305.529c0,0-39.234-3.615-57.098-1.51c-21.317,2.535-39.99,13.707-39.99,13.707"/>
	<path fill="#455A64" d="M129.271,257.553c0-61.038,63.79-116.895,142.637-116.895c78.686,0,142.637,55.856,142.637,116.895
		S368.78,361.71,271.908,361.71C175.035,361.71,129.271,318.591,129.271,257.553z"/>
	<path fill="#455A64" d="M328.358,158.791c0,0,23.152-31.949,65.896-31.949c17.054,17,5.343,65.733-0.217,80.359L328.358,158.791z"
		/>
	<path fill="#455A64" d="M215.295,158.791c0,0-23.152-31.949-65.733-31.949c-17,17.054-5.451,65.787,0.108,80.413L215.295,158.791z"
		/>
	<path fill="#455A64" d="M211.194,428.9c0,0-32.435,0-38.533,0c-16.838,0-31.787-7.394-39.019-20.777
		c-8.095-14.949-15.759-31.787-35.727-45.711c-3.507-2.482-1.457-6.098,5.451-5.289c6.747,0.701,19.59,2.213,29.359,15.057
		c9.822,12.846,20.454,27.578,38.857,27.578c18.188,0,37.939,0.486,47.87-12.682L211.194,428.9z"/>
	<path fill="#00BCD4" d="M265,2.5C119.988,2.5,2.5,119.988,2.5,265S119.988,527.5,265,527.5S527.5,410.012,527.5,265
		S410.012,2.5,265,2.5z M265,486.484c-122.129,0-221.484-99.355-221.484-221.484c0-122.129,99.355-221.484,221.484-221.484
		c122.129,0,221.484,99.355,221.484,221.484C486.484,387.129,387.129,486.484,265,486.484z"/>
</g>
</svg>
