<?xml version="1.0" encoding="utf-8"?>
<!-- Generator: Adobe Illustrator 16.0.0, SVG Export Plug-In . SVG Version: 6.00 Build 0)  -->
<!DOCTYPE svg PUBLIC "-//W3C//DTD SVG 1.1//EN" "http://www.w3.org/Graphics/SVG/1.1/DTD/svg11.dtd">
<svg version="1.1" id="Layer_1" xmlns="http://www.w3.org/2000/svg" xmlns:xlink="http://www.w3.org/1999/xlink" x="0px" y="0px"
	 width="528px" height="528px" viewBox="0 0 528 528" enable-background="new 0 0 528 528" xml:space="preserve">
<g id="surface1">
	<path fill="#F2C91C" d="M-1.5,59.667C-1.5,27.24,24.74,1,57.167,1h410.667C500.261,1,526.5,27.24,526.5,59.667v410.667
		c0,32.428-26.239,58.667-58.667,58.667H57.167C24.74,529-1.5,502.761-1.5,470.333V59.667z"/>
	<path fill="#1C0802" d="M42.5,45v440h440V45H42.5z M257.974,367.667l-11.172-42.684h-57.464l-11.114,42.684h-44.573l65.141-208.542
		h38.558l65.599,208.542H257.974z M362.989,367.667h-40.677V212.693h40.677V367.667z M358.579,188.057
		c-3.954,4.125-9.34,6.188-16.1,6.188c-6.817,0-12.146-2.063-16.1-6.188c-4.01-4.125-5.959-9.281-5.959-15.469
		c0-6.302,2.006-11.458,6.017-15.469c4.011-4.01,9.338-6.016,16.042-6.016c6.646,0,12.031,2.005,16.041,6.016
		c4.011,4.011,6.017,9.167,6.017,15.469C364.537,178.776,362.531,183.932,358.579,188.057z"/>
	<path fill="#1C0802" d="M198.563,289.864h38.958l-19.479-74.307L198.563,289.864z"/>
</g>
</svg>
