<?xml version="1.0" encoding="utf-8"?>
<!-- Generator: Adobe Illustrator 16.0.0, SVG Export Plug-In . SVG Version: 6.00 Build 0)  -->
<!DOCTYPE svg PUBLIC "-//W3C//DTD SVG 1.1//EN" "http://www.w3.org/Graphics/SVG/1.1/DTD/svg11.dtd">
<svg version="1.1" id="Layer_1" xmlns="http://www.w3.org/2000/svg" xmlns:xlink="http://www.w3.org/1999/xlink" x="0px" y="0px"
	 width="528px" height="528px" viewBox="0 0 528 528" enable-background="new 0 0 528 528" xml:space="preserve">
<g id="surface1">
	<path fill="#81C784" d="M514.848,60.611H280.402v410.277h234.445c8.814,0,14.652-5.838,14.652-14.652V75.264
		C529.5,66.449,523.662,60.611,514.848,60.611z"/>
	<path fill="#FFFFFF" d="M485.542,251.097l-58.611,58.611l-58.611-58.611h43.958v-87.917H309.708v-29.306h131.875v117.222H485.542z
		 M339.014,295.056l-58.611,58.611l58.611,58.61l58.611-58.61L339.014,295.056z"/>
	<path fill="#43A047" d="M309.708,529.5L2,470.889V60.611L309.708,2V529.5z"/>
	<path fill="#FFFFFF" d="M160.261,163.181H89.917v205.139h43.958v-70.345h23.467c24.898,0,43.958-5.839,58.611-19.061
		c14.653-13.164,21.979-29.305,21.979-49.796C236.444,185.16,211.546,163.181,160.261,163.181z M152.935,262.831h-19.06v-64.507
		h19.06c23.41,0,36.632,10.303,36.632,32.282C189.567,252.585,176.345,262.831,152.935,262.831z"/>
</g>
</svg>
