<?xml version="1.0" encoding="utf-8"?>
<!-- Generator: Adobe Illustrator 16.0.0, SVG Export Plug-In . SVG Version: 6.00 Build 0)  -->
<!DOCTYPE svg PUBLIC "-//W3C//DTD SVG 1.1//EN" "http://www.w3.org/Graphics/SVG/1.1/DTD/svg11.dtd">
<svg version="1.1" id="Layer_1" xmlns="http://www.w3.org/2000/svg" xmlns:xlink="http://www.w3.org/1999/xlink" x="0px" y="0px"
	 width="528px" height="528px" viewBox="0 0 528 528" enable-background="new 0 0 528 528" xml:space="preserve">
<g id="surface1">
	<path fill="#7986CB" d="M513.457,61.721H280.792v407.556h232.665c8.011,0,14.543-6.482,14.543-14.555V76.277
		C528,68.203,521.468,61.721,513.457,61.721z"/>
	<path fill="none" stroke="#E8EAF6" stroke-width="2" stroke-miterlimit="10" d="M295.276,178.166h87.25"/>
	<path fill="none" stroke="#E8EAF6" stroke-width="2" stroke-miterlimit="10" d="M266.25,309.166h87.249V396.5H266.25V309.166z"/>
	<path fill="#3949AB" d="M309.876,527.5L4.5,469.276V61.721L309.876,3.499V527.5z"/>
	<path fill="#FFFFFF" d="M121.061,377.679L62.666,164.293l40.16-3.526l41.354,166.479h2.386l43.511-174.041l47.09-4.151
		l-68.562,232.888L121.061,377.679z"/>
	<path fill="none" stroke="#E8EAF6" stroke-width="2" stroke-miterlimit="10" d="M469.833,178.166l-43.625,43.667l-43.682-43.667
		l43.682-43.723L469.833,178.166z"/>
	<path fill="none" stroke="#E8EAF6" stroke-width="2" stroke-miterlimit="10" d="M368.042,352.832h58.166v-131"/>
</g>
</svg>
