<?xml version="1.0" encoding="utf-8"?>
<!-- Generator: Adobe Illustrator 16.0.0, SVG Export Plug-In . SVG Version: 6.00 Build 0)  -->
<!DOCTYPE svg PUBLIC "-//W3C//DTD SVG 1.1//EN" "http://www.w3.org/Graphics/SVG/1.1/DTD/svg11.dtd">
<svg version="1.1" id="Layer_1" xmlns="http://www.w3.org/2000/svg" xmlns:xlink="http://www.w3.org/1999/xlink" x="0px" y="0px"
	 width="528px" height="528px" viewBox="0 0 528 528" enable-background="new 0 0 528 528" xml:space="preserve">
<g id="surface1">
	<path fill="#03A9F4" d="M-1.5,57.389C-1.5,24.839,24.839-1.5,57.389-1.5h412.223c32.55,0,58.889,26.339,58.889,58.889v412.223
		c0,32.55-26.339,58.889-58.889,58.889H57.389c-32.55,0-58.889-26.339-58.889-58.889V57.389z"/>
	<path fill="#020F16" d="M204.841,192.477h-29.445v65.272h29.042c8.051,0,14.262-2.646,18.69-7.936
		c4.428-5.233,6.613-12.939,6.613-23.003c0-10.467-2.243-18.748-6.786-24.959C218.471,195.697,212.432,192.534,204.841,192.477z"/>
	<path fill="#020F16" d="M42.667,42.667v441.667h441.667V42.667H42.667z M254.126,275.117
		c-12.134,11.904-28.984,17.827-50.55,17.827h-28.18v73.611h-42.269V157.224h71.311c20.703,0,37.208,6.441,49.515,19.265
		c12.307,12.825,18.46,29.502,18.46,50.033S266.318,263.212,254.126,275.117z M391.341,356.779
		c-10.465,8.454-24.21,12.651-41.118,12.651c-11.443,0-21.508-2.243-30.192-6.671c-8.74-4.485-15.584-10.696-20.53-18.633
		c-4.945-7.936-7.418-16.563-7.418-25.764h38.703c0.23,7.131,1.84,12.422,4.945,15.987s8.224,5.291,15.298,5.291
		c10.927,0,16.39-4.889,16.39-14.78c0-3.45-1.61-6.671-4.945-9.545c-3.336-2.934-10.64-6.901-22.026-11.849
		c-16.792-6.843-28.294-13.858-34.62-21.162c-6.269-7.304-9.432-16.333-9.432-27.202c0-13.572,4.946-24.844,14.781-33.7
		c9.774-8.856,22.83-13.285,38.989-13.285c17.081,0,30.711,4.428,41.004,13.227c10.237,8.799,15.354,20.646,15.354,35.483h-40.658
		c0-12.652-5.291-18.978-15.814-18.978c-4.313,0-7.879,1.38-10.64,4.026c-2.818,2.703-4.198,6.441-4.198,11.214
		c0,3.451,1.553,6.499,4.601,9.144c3.106,2.645,10.295,6.383,21.739,11.272c16.563,6.153,28.295,12.997,35.138,20.53
		c6.9,7.533,10.293,17.252,10.293,29.214C406.983,337.169,401.751,348.325,391.341,356.779z"/>
</g>
</svg>
