<?xml version="1.0" encoding="utf-8"?>
<!-- Generator: Adobe Illustrator 16.0.0, SVG Export Plug-In . SVG Version: 6.00 Build 0)  -->
<!DOCTYPE svg PUBLIC "-//W3C//DTD SVG 1.1//EN" "http://www.w3.org/Graphics/SVG/1.1/DTD/svg11.dtd">
<svg version="1.1" id="Layer_1" xmlns="http://www.w3.org/2000/svg" xmlns:xlink="http://www.w3.org/1999/xlink" x="0px" y="0px"
	 width="528px" height="528px" viewBox="0 0 528 528" enable-background="new 0 0 528 528" xml:space="preserve">
<g id="surface1">
	<path fill="#FFB300" d="M360.837,87.252l-86.674,30.174L255.74,60.979c-7.851-23.657,3.952-49.932,28.892-57.834
		c23.657-7.852,49.932,3.951,57.834,28.891L360.837,87.252z M334.563,297.447l86.727-30.227l-30.226-93.293l-86.727,30.226
		L334.563,297.447z M379.261,431.436c6.567,18.372,24.939,31.509,43.311,31.509c5.286,0,10.521-1.282,14.473-2.616
		c23.656-7.903,36.794-34.179,28.891-57.784l-15.753-47.313l-86.727,30.226L379.261,431.436z"/>
	<path fill="#00BFA5" d="M176.917,151.604L90.243,181.83L71.82,126.664c-7.851-23.657,3.952-49.931,28.892-57.834
		c23.657-7.851,49.931,3.952,57.834,28.892L176.917,151.604z M195.34,497.122c6.569,18.371,24.94,31.509,43.312,31.509
		c5.285,0,10.52-1.283,14.471-2.618c23.657-7.902,36.794-34.177,28.892-57.782l-15.754-48.648l-86.727,30.226L195.34,497.122z
		 M205.809,239.613l-86.674,30.226l30.225,93.294l86.675-30.226L205.809,239.613z"/>
	<path fill="#00BCD4" d="M389.729,175.262l-28.893-86.726l53.884-18.372c23.657-7.903,49.933,3.951,57.783,28.892
		c7.902,23.657-3.952,49.932-28.892,57.783L389.729,175.262z M303.055,205.487l-28.892-86.726l-97.246,34.177l28.892,86.674
		L303.055,205.487z M35.026,201.536c-23.606,7.852-36.744,34.125-28.891,57.783c6.568,19.705,24.991,31.561,43.363,31.561
		c5.234,0,10.52-1.334,14.471-2.668l53.832-18.372l-28.892-86.726L35.026,201.536z"/>
	<path fill="#E91E63" d="M149.36,361.799l28.892,86.726l-61.734,20.988c-5.286,1.334-10.52,2.618-14.472,2.618
		c-19.706,0-36.794-11.803-43.363-31.51c-7.851-23.656,3.952-49.931,28.892-57.782L149.36,361.799z M525.053,280.358
		c-7.852-23.657-34.126-36.794-57.784-28.891l-45.979,15.753l28.892,88.01l47.313-15.755
		C521.101,330.29,534.237,304.016,525.053,280.358z M236.035,331.573l28.891,86.726l97.246-34.177l-28.892-86.675L236.035,331.573z"
		/>
	<path fill="#388E3C" d="M389.729,175.262l-28.893-88.009l-86.674,30.174l28.892,88.061L389.729,175.262z"/>
	<path fill="#00897B" d="M176.917,151.604L90.243,181.83l28.892,88.009l86.674-30.226L176.917,151.604z"/>
	<path fill="#BF360C" d="M334.563,297.447l28.892,88.009l86.727-30.226l-28.892-88.01L334.563,297.447z"/>
	<path fill="#4E342E" d="M149.36,361.799l28.892,88.009l86.674-30.226l-28.891-88.009L149.36,361.799z"/>
</g>
</svg>
