<?xml version="1.0" encoding="utf-8"?>
<!-- Generator: Adobe Illustrator 16.0.0, SVG Export Plug-In . SVG Version: 6.00 Build 0)  -->
<!DOCTYPE svg PUBLIC "-//W3C//DTD SVG 1.1//EN" "http://www.w3.org/Graphics/SVG/1.1/DTD/svg11.dtd">
<svg version="1.1" id="Layer_1" xmlns="http://www.w3.org/2000/svg" xmlns:xlink="http://www.w3.org/1999/xlink" x="0px" y="0px"
	 width="528px" height="528px" viewBox="0 0 528 528" enable-background="new 0 0 528 528" xml:space="preserve">
<g id="surface1">
	<path fill="#1E88E5" d="M0.5,59.056C0.5,26.861,26.861,0.5,59.056,0.5h409.89c32.193,0,58.555,26.361,58.555,58.556v409.89
		c0,32.193-26.361,58.555-58.555,58.555H59.056C26.861,527.5,0.5,501.139,0.5,468.945V59.056z"/>
	<path fill="#FFFFFF" d="M59.056,91.25c0-17.556,14.639-32.194,32.194-32.194h111.278c17.555,0,32.194,14.639,32.194,32.194v316.223
		c0,17.555-14.64,32.193-32.194,32.193H91.25c-17.556,0-32.194-14.639-32.194-32.193V91.25z M293.277,246.444
		c0,17.556,14.639,32.194,32.195,32.194H436.75c17.555,0,32.195-14.639,32.195-32.194V91.25c0-17.556-14.641-32.194-32.195-32.194
		H325.473c-17.557,0-32.195,14.639-32.195,32.194V246.444z"/>
</g>
</svg>
