<?xml version="1.0" encoding="utf-8"?>
<!-- Generator: Adobe Illustrator 16.0.0, SVG Export Plug-In . SVG Version: 6.00 Build 0)  -->
<!DOCTYPE svg PUBLIC "-//W3C//DTD SVG 1.1//EN" "http://www.w3.org/Graphics/SVG/1.1/DTD/svg11.dtd">
<svg version="1.1" id="Layer_1" xmlns="http://www.w3.org/2000/svg" xmlns:xlink="http://www.w3.org/1999/xlink" x="0px" y="0px"
	 width="528px" height="528px" viewBox="0 0 528 528" enable-background="new 0 0 528 528" xml:space="preserve">
<g id="surface1">
	<path fill="#47667F" d="M396,390.5c0-63.809-56.633-115.5-126.5-115.5S143,326.691,143,390.5S199.633,506,269.5,506
		S396,454.309,396,390.5z"/>
	<path fill="#C5CAD5" d="M390.371,385c0-58.094-54.098-105.188-120.871-105.188S148.629,326.906,148.629,385
		S202.727,490.188,269.5,490.188S390.371,443.094,390.371,385z"/>
	<path fill="#C5CAD5" d="M55,110l209,121v242L66,330L55,110z"/>
	<path fill="#6D83B3" d="M473,110L264,231v242l198-143L473,110z"/>
	<path fill="#5A6E91" d="M269.5,490.188c2.965,0,5.887-0.215,8.809-0.387l107.938-77.945c2.621-8.594,4.125-17.574,4.125-26.855
		c0-1.074-0.129-2.063-0.172-3.137L264,473l-115.07-83.102c0.602,11.516,3.309,22.516,7.82,32.785l90.965,65.699
		C254.805,489.5,262.066,490.188,269.5,490.188z"/>
	<path fill="#EAF4F8" d="M55,110l209,121l209-121L264,11L55,110z"/>
	<path fill="#34495E" d="M128.133,108.367L264,187l135.867-78.633L264,44L128.133,108.367z"/>
	<path fill="#34495E" d="M440,308l7.09-141.883L297,253v158.297L440,308z"/>
	<path fill="#34495E" d="M88,308l-7.09-141.883L231,253v158.297L88,308z"/>
	<path fill="none" stroke="#EAF4F8" stroke-miterlimit="10" d="M209,60.5l26.469,13.063l-26.813,36.781l80.094-26.125
		l-17.531,40.563l50.875-17.875l-22.688,49.156L330,176"/>
	<path fill="#ECF0F1" d="M317.023,301.426c0.688,5.371-5.5,30.723-5.844,33.859c-0.387,3.523-2.32,5.414-5.973,6.875
		c-1.031-9.582-2.063-18.82-2.965-28.059c-0.215-2.621,2.277-2.965,4.082-4.383c0.688,7.563,1.418,15.855,2.063,22.945
		c0.215,0.043,3.738-16.844,4.941-24.75C313.758,305.078,314.66,302.93,317.023,301.426z"/>
	<path fill="#ECF0F1" d="M426.551,246.426c-1.289,3.051-0.902,8.422-5.672,10.57c-0.301-2.836,0.902-5.199,1.805-7.434
		c1.977-4.941,2.621-9.754,0.129-14.652c-1.16-2.32,0.559-3.18,2.02-4.082c2.535-1.547,1.461,1.762,3.008,2.105
		c1.719-2.234,0.688-6.488,4.727-7.391c0.773,1.375-0.258,2.707-0.73,3.824c-2.449,5.586-3.223,11.129-0.258,16.758
		c1.418,2.707-0.258,3.652-2.105,4.77c-0.387,0.215-0.988,0.645-1.719-1.031C427.324,248.746,426.98,247.672,426.551,246.426z"/>
	<path fill="#ECF0F1" d="M318.957,329.699c0.516-6.531,1.16-13.063,1.504-19.594c0.129-2.363,0.859-3.867,3.781-4.813
		c-0.516,8.035-0.988,15.813-1.547,23.547c-0.129,1.848-0.645,2.535-2.578,3.352C318.957,332.664,318.957,329.699,318.957,329.699z"
		/>
	<path fill="#ECF0F1" d="M324.586,294.895c1.805,0.988,0.516,3.867-0.516,5.715c-0.473,0.859-1.117,1.848-2.191,1.676
		c-1.332-0.172-1.203-1.504-1.246-2.449C320.547,298.676,322.438,293.777,324.586,294.895z"/>
	<path fill="#ECF0F1" d="M217.293,326.605c-4.297-3.051-8.164-5.844-12.762-9.152c0.902,4.641,2.707,7.906,5.887,10.355
		c2.879,2.234,5.844,4.34,8.895,6.402c1.461,0.988,2.363,1.375,1.418,2.922c-1.246,2.02-2.492,0.816-3.438,0.301
		c-9.539-5.371-15.168-13.449-16.586-24.32c-0.172-1.16-0.344-2.363-0.301-3.523c0.129-2.449,0.129-5.156,2.75-6.488
		c2.449-1.203,4.082,0.902,5.801,2.063c2.664,1.805,5.199,3.824,7.906,5.586c1.59,1.031,1.934,1.848,1.074,3.223
		c-1.289,2.063-2.449,0.387-3.309-0.129c-1.891-1.117-3.566-2.535-5.371-3.781c-1.504-1.031-4.512-3.137-4.898-0.043
		c-0.344,2.922,0.344,2.836,1.848,3.953c3.438,2.492,6.918,4.941,10.313,7.477C218.84,323.168,218.84,323.211,217.293,326.605z"/>
	<path fill="#ECF0F1" d="M201.738,322.051c1.418,1.16-0.859,3.695-2.621,2.32c-3.91-3.051-8.035-5.887-12.031-8.809
		c-1.719-1.203-2.32-3.008-2.492-4.941c-0.773-7.52-1.461-15.125-2.277-22.688c-0.129-1.16,0.043-1.633,1.246-1.418
		c1.117,0.945,1.762,2.02,1.891,3.652c0.344,4.469,0.73,8.594,1.332,13.406c1.031,8.164,2.406,9.539,7.262,12.59
		C196.969,318.055,198.129,319.086,201.738,322.051z"/>
	<path fill="#ECF0F1" d="M328.238,325.359c0.473-7.992,0.859-15.254,1.332-22.559c0.172-2.363,0.301-2.449,3.438-2.148
		c1.074,0.129,1.848-4.383,4.168-5.414c0.129,2.621,0.387,4.684-1.762,6.66c-1.805,1.676-2.449,4.211-2.621,6.746
		c-0.215,3.953-0.73,7.863-0.73,11.816C332.02,322.953,330.859,324.113,328.238,325.359z"/>
	<path fill="#ECF0F1" d="M388.051,278.094c-1.461,0.387-1.719-0.43-1.633-1.633c0.473-5.242,1.246-21.527,1.676-25.094
		c0.172-1.031,0.73-2.75-0.73-2.965c-1.504-0.215-2.191,1.246-2.707,2.707c-1.117,3.008-3.738,30.766-1.332,33.645
		C386.504,286.172,388.395,281.66,388.051,278.094z"/>
	<path fill="#ECF0F1" d="M347.746,287.59c-0.215,0.086-2.363,2.191-2.535-0.258c-0.172-1.676-0.043-3.395-0.086-5.113
		c-1.977-0.086-2.32,1.547-2.406,2.836c-0.258,3.051-0.43,6.016-2.793,8.422c-0.516,0.473-0.773,1.934-0.43,2.449
		c2.578,3.867,0.816,8.035,0.859,12.031c0.043,2.578-1.418,6.359,0.988,7.262c2.879,1.117,5.543-6.531,5.457-6.531
		c-2.277,0.172-2.578-3.395-2.492-5.285c0.258-4.168-1.16-8.809,3.18-12.031C348.434,290.684,347.961,288.879,347.746,287.59z"/>
	<path fill="#ECF0F1" d="M413.66,238.391c-5.758,4.641-6.445,12.375-6.961,19.422c-0.215,3.051,0.344,8.98,5.027,6.746
		c8.25-3.91,8.121-13.879,8.164-22.645C419.891,236.414,417.871,234.953,413.66,238.391z M412.07,258.93
		c-1.59,0-1.203-2.793-1.117-4.512c0.215-4.555,1.418-11.645,4.168-11.645c1.031,0,1.074,1.289,1.117,2.191
		C416.367,248.746,415.508,258.93,412.07,258.93z"/>
	<path fill="#ECF0F1" d="M139.691,281.617c-2.105-0.902-3.223-2.664-4.082-4.641c-2.75-5.586-5.629-11.086-8.379-16.715
		c3.223,1.848,7.391,4.082,8.25,3.523c2.32-1.676-1.762-6.488-3.18-7.605c-1.977-1.418-4.855-3.609-7.605-5.715
		c0.344,2.793,0.816,13.75,1.547,18.262c0.215,0.902,0.773,2.32-0.559,2.664c-1.289,0.301-2.063-1.031-2.191-2.105
		c-0.559-4.512-3.094-24.965-1.977-26.641c8.035,5.715,17.617,10.141,18.906,21.785c0.473,4.855-0.773,6.617-5.156,6.188
		c1.547,2.965,3.094,5.715,4.383,8.551C139.992,279.855,141.539,280.844,139.691,281.617z"/>
	<path fill="#ECF0F1" d="M180.813,306.324c-2.922-1.934-5.758-3.996-8.508-6.145c-4.941-3.91-6.789-9.41-6.789-15.469
		c0-3.781,1.934-4.598,5.027-2.535c2.063,1.375,3.996,2.965,6.102,4.297c0.688,0.473,1.547,2.32,2.707,0.301
		c0.688-1.289,0.902-2.32-0.602-3.309c-3.352-2.32-6.574-4.813-9.926-7.09c-1.891-1.246-3.996-2.02-5.586,0.602
		c-2.277,7.563-0.301,14.738,3.352,21.098c2.922,5.07,7.734,8.035,11.902,11.73c0.473,0.387,2.492,2.063,3.438,0.473
		C182.961,308.473,182.445,307.398,180.813,306.324z"/>
	<path fill="#ECF0F1" d="M118.078,243.031c-3.652-6.617-14.91-13.707-15.34-14.008c-4.426-3.008-6.875-2.02-7.52,3.352
		c-0.43,3.953,0.773,7.734,1.762,11.559c2.234,8.551,8.98,13.191,15.512,18.047c5.5,2.922,7.648,2.621,8.078-3.48
		C120.613,253.387,119.453,245.566,118.078,243.031z M116.918,256.781c-0.559,1.16-1.289,1.805-2.75,1.375
		c-7.949-2.105-15.813-12.375-15.855-20.711c0-1.547-0.258-3.352,1.375-4.34c1.762-1.074,3.566,0.301,4.855,1.16
		c6.617,4.211,11.988,9.109,12.805,17.789C117.52,253.688,117.563,255.234,116.918,256.781z"/>
	<path fill="#ECF0F1" d="M404.336,256.953c-1.676-3.824-0.816-6.359,0.086-9.582c0.43-1.504,1.719-7.863-2.965-7.219
		c-3.266,0.43-7.219,4.555-7.949,7.734c-1.246,5.586-1.719,30.465-1.719,30.465c3.738-1.676,6.531-4.34,8.68-7.305
		C403.477,266.879,406.313,261.594,404.336,256.953z M400.727,263.012c-0.301,3.094-1.246,5.93-4.555,7.477
		c0-2.879-0.086-5.457,0-8.035c0.086-1.934,1.547-3.137,3.18-2.965C400.898,259.703,400.855,261.68,400.727,263.012z
		 M400.941,249.047c-0.387,2.449-0.988,4.855-4.211,6.789c0.129-2.922,0.129-5.199,0.43-7.477c0.172-1.246,1.332-2.148,2.492-2.063
		C401.242,246.426,401.113,247.973,400.941,249.047z"/>
	<path fill="#ECF0F1" d="M362.742,275.945c-3.008,0.086-2.75,2.793-2.879,3.91c0,0.215-1.16,17.617-1.633,18.348
		c-0.602,0.902-1.16,2.32-2.535,1.805c-1.117-0.43-0.816-1.762-0.73-2.75c0.172-3.91,0.516-7.82,0.688-11.773
		c0.043-1.16,0.859-3.996-1.203-3.695c-3.051,0.473-3.438,2.75-3.523,5.242c-0.344,5.199-1.461,10.398-0.859,15.641
		c0.258,2.75,1.117,6.145,4.727,4.082c1.375-0.773,3.309-2.793,3.781-5.199c4.813,0.859,3.609-2.965,3.867-5.199
		c0.559-5.285,0.816-10.656,1.031-15.984C363.559,278.91,364.332,277.191,362.742,275.945z"/>
	<path fill="#ECF0F1" d="M156.32,275.859c-1.375-3.652-2.793-7.305-4.254-10.957c-0.387-0.945-0.945-1.934-2.105-1.977
		c-1.375-0.043-1.375,1.246-1.719,2.148l-6.23,18.047c0.258,1.461,2.148,2.836,3.953,0.902c0.602-1.461,3.824-10.613,5.242-14.867
		l5.242,14.309c-3.137,0-6.359-4.211-7.305-3.008c-1.805,2.32,3.996,6.617,7.219,8.723c1.848,1.203,3.48,5.113,4.039,6.703
		c0.516,1.59,2.105,3.996,4.426,2.277C161.992,290.727,159.199,283.293,156.32,275.859z"/>
	<path fill="#ECF0F1" d="M373.441,267.609c-6.188,4.254-6.402,8.637-4.297,8.98c0.859-0.816,1.633-1.676,2.535-2.363
		c0.859-0.688,1.934-2.105,2.879-1.074s0.902,2.75-0.301,3.953c-0.73,0.73-1.547,1.332-2.277,2.063
		c-3.781,3.652-5.371,8.25-5.5,13.363c-0.043,1.289,0.043,2.836,1.59,3.266c1.16,0.387,2.363-0.473,2.965-1.418
		c1.59-2.535,3.609-4.383,6.574-5.113c0.344-7.047,1.074-12.117,1.074-21.055C378.684,265.418,375.547,266.148,373.441,267.609z
		 M371.852,289.094c-0.559,0.344-1.289,0.172-1.375-0.473c-0.473-3.008,1.375-4.898,3.91-6.746c0.387,0.215,0-0.086,0,0
		C374.73,284.711,374.43,287.289,371.852,289.094z"/>
</g>
</svg>
