<?xml version="1.0" encoding="utf-8"?>
<!-- Generator: Adobe Illustrator 16.0.0, SVG Export Plug-In . SVG Version: 6.00 Build 0)  -->
<!DOCTYPE svg PUBLIC "-//W3C//DTD SVG 1.1//EN" "http://www.w3.org/Graphics/SVG/1.1/DTD/svg11.dtd">
<svg version="1.1" id="Layer_1" xmlns="http://www.w3.org/2000/svg" xmlns:xlink="http://www.w3.org/1999/xlink" x="0px" y="0px"
	 width="528px" height="528px" viewBox="0 0 528 528" enable-background="new 0 0 528 528" xml:space="preserve">
<g id="surface1">
	<path fill="#9E9E9E" d="M455.555,154c-39.488,0-64.238,27.5-64.238,27.5c-13.148-17.145-31.281-27.457-61.961-27.457
		c-32.398,0-53.883,27.457-53.883,27.457C262.324,164.355,238.563,154,220,154c-28.703,0-51.477,12.676-65.398,44.645
		l-46.578,101.879l-52.68-129.379c-6.66-14.652-23.074-21.27-38.371-14.438c-15.34,6.875-20.969,23.977-14.051,38.629
		l64.324,145.063C77.344,362.441,88.043,374,108.023,374c21.398,0,30.68-12.59,40.82-33.602c0,0,43.785-97.711,49.156-109.398
		s14.309-22,27.5-22c15.125,0,27.5,12.375,27.5,27.5v108.625C253,361.023,264.945,374,280.758,374
		c15.77,0,27.242-12.977,27.242-28.875V236.5c0-15.125,12.375-27.5,27.5-27.5s27.5,12.375,27.5,27.5v110
		c0,15.125,12.375,27.5,27.5,27.5s27.5-12.375,27.5-27.5v-110c0-15.125,12.375-27.5,27.5-27.5s27.5,12.375,27.5,27.5v110
		c0,15.125,12.375,27.5,27.5,27.5s27.5-12.375,27.5-27.5V223.91C528,182.789,495.129,154,455.555,154z"/>
</g>
</svg>
